<?xml version="1.0" encoding="UTF-8"?>
<svg width="66px" height="66px" viewBox="0 0 66 66" version="1.1" xmlns="http://www.w3.org/2000/svg" xmlns:xlink="http://www.w3.org/1999/xlink">
    <!-- Generator: Sketch 46.2 (44496) - http://www.bohemiancoding.com/sketch -->
    <title>Design</title>
    <desc>Created with Sketch.</desc>
    <defs></defs>
    <g id="Page-1" stroke="none" stroke-width="1" fill="none" fill-rule="evenodd">
        <g id="Home" transform="translate(-390.000000, -1463.000000)" fill-rule="nonzero">
            <g id="Third-Section" transform="translate(189.000000, 1058.000000)">
                <g id="Growth-Strats" transform="translate(160.000000, 394.000000)">
                    <g id="np_playing-chess_1176725_000000" transform="translate(41.000000, 11.000000)">
                        <g id="Design">
                            <path d="M64.8148085,0.0877659574 L5.57278723,0.0877659574 C4.96665447,0.0877659574 4.47571277,0.57870766 4.47571277,1.18484043 L4.47571277,31.9029255 L6.6698617,31.9029255 L6.6698617,22.0296064 L24.2230532,22.0296064 L24.2230532,39.5827979 L20.9318298,39.5827979 L20.9318298,41.7769468 L24.2230532,41.7769468 L24.2230532,60.4268617 C24.2230532,61.0329945 24.7139949,61.5239362 25.3201277,61.5239362 L64.8148085,61.5239362 C65.4209413,61.5239362 65.911883,61.0329945 65.911883,60.4268617 L65.911883,1.18484043 C65.911883,0.57870766 65.4209413,0.0877659574 64.8148085,0.0877659574 Z M26.4168511,22.0292553 L43.9700426,22.0292553 L43.9700426,39.5824468 L26.4168511,39.5824468 L26.4168511,22.0292553 Z M46.1641915,22.0292553 L63.717383,22.0292553 L63.717383,39.5824468 L46.1641915,39.5824468 L46.1641915,22.0292553 Z M63.717383,19.8351064 L46.1641915,19.8351064 L46.1641915,2.28191489 L63.717383,2.28191489 L63.717383,19.8351064 Z M43.9700426,19.8351064 L26.4168511,19.8351064 L26.4168511,2.28191489 L43.9700426,2.28191489 L43.9700426,19.8351064 Z M6.66951064,19.8351064 L6.66951064,2.28191489 L24.2227021,2.28191489 L24.2227021,19.8351064 L6.66951064,19.8351064 Z M26.4168511,41.7765957 L43.9700426,41.7765957 L43.9700426,59.3297872 L26.4168511,59.3297872 L26.4168511,41.7765957 Z M63.717383,59.3297872 L46.1641915,59.3297872 L46.1641915,41.7765957 L63.717383,41.7765957 L63.717383,59.3297872 Z" id="Shape" fill="#000000"></path>
                            <polygon id="Shape" fill="#606060" points="27.8358511 8.08851064 32.2241489 3.70021277 33.776483 5.25254681 29.3881851 9.64084468"></polygon>
                            <polygon id="Shape" fill="#FF6060" points="28.9325745 15.7676809 39.9033191 4.79693617 41.4556532 6.34927021 30.4849085 17.3200149"></polygon>
                            <polygon id="Shape" fill="#606060" points="36.6124468 16.8651064 41.0007447 12.4768085 42.5530787 14.0291426 38.1647809 18.4174404"></polygon>
                            <polygon id="Shape" fill="#606060" points="47.5831915 27.8358511 51.9714894 23.4475532 53.5238234 24.9998872 49.1355255 29.3881851"></polygon>
                            <polygon id="Shape" fill="#FC7A7A" points="48.6799149 35.5150213 59.6506596 24.5442766 61.2029936 26.0966106 50.2322489 37.0673553"></polygon>
                            <polygon id="Shape" fill="#606060" points="56.3597872 36.6124468 60.7480851 32.2241489 62.3004191 33.776483 57.9121213 38.1647809"></polygon>
                            <polygon id="Shape" fill="#606060" points="27.8358511 47.5831915 32.2241489 43.1948936 33.776483 44.7472277 29.3881851 49.1355255"></polygon>
                            <polygon id="Shape" fill="#FC7A7A" points="28.9325745 55.2623617 39.9033191 44.291617 41.4556532 45.8439511 30.4849085 56.8146957"></polygon>
                            <polygon id="Shape" fill="#606060" points="36.6124468 56.3597872 41.0007447 51.9714894 42.5530787 53.5238234 38.1647809 57.9121213"></polygon>
                            <path d="M1.18484043,65.912234 L23.1263298,65.912234 C23.7324626,65.912234 24.2234043,65.4212923 24.2234043,64.8151596 L24.2234043,62.6210106 C24.2234043,61.6528468 23.7955417,60.7888787 23.1263298,60.1854702 L23.1263298,59.329717 C23.1263298,56.9161532 22.1856191,54.6451915 20.4769213,52.9364936 L17.451734,49.9113064 C16.4369489,48.893783 15.7457745,46.8258064 15.5263596,45.0677489 L19.8351064,45.0677489 L19.8351064,42.8736 L17.0485021,42.8736 C18.096217,41.7079277 18.7379617,40.1720234 18.7379617,38.4853021 C18.7379617,34.8539681 15.7868489,31.9028553 12.1555149,31.9028553 C8.52418085,31.9028553 5.57306809,34.8539681 5.57306809,38.4853021 C5.57306809,40.1720234 6.21485489,41.7079277 7.26252766,42.8736 L4.4759234,42.8736 L4.4759234,45.0677489 L8.78467021,45.0677489 C8.56525532,46.8230681 7.87681915,48.893783 6.85929574,49.9113064 L3.83410851,52.9364936 C2.12541064,54.6451915 1.1847,56.9161532 1.1847,59.329717 L1.1847,60.1854702 C0.515488085,60.7888647 0.0876255319,61.6527766 0.0876255319,62.6210106 L0.0876255319,64.8151596 C0.0876255319,65.4212923 0.578567234,65.912234 1.1847,65.912234 L1.18484043,65.912234 Z M22.0296064,63.7180851 L2.28226596,63.7180851 L2.28226596,62.6210106 C2.28226596,62.1986387 2.52910596,61.8448085 2.88016979,61.6610617 C2.92953849,61.6336352 2.9816483,61.6144362 3.03376021,61.5952372 C3.14346766,61.55684 3.25592043,61.5239291 3.37934043,61.5239291 L20.9325319,61.5239291 C21.0559519,61.5239291 21.1684047,61.5568414 21.2808504,61.5952372 C21.3329609,61.6144362 21.3823289,61.6336352 21.4344409,61.6610617 C21.7827594,61.8448226 22.0296064,62.1986317 22.0296064,62.6210106 L22.0296064,63.7180851 Z M12.1562872,34.0967234 C14.5753277,34.0967234 16.5445851,36.0659809 16.5445851,38.4850213 C16.5445851,40.9040617 14.5753277,42.8733191 12.1562872,42.8733191 C9.73724681,42.8733191 7.76798936,40.9040617 7.76798936,38.4850213 C7.76798936,36.0659809 9.73724681,34.0967234 12.1562872,34.0967234 Z M5.38461702,54.4858085 L8.40980426,51.4606213 C9.87711064,49.9933149 10.7685319,47.2862617 10.9989,45.0673979 L13.3137447,45.0673979 C13.5441268,47.289 14.435534,49.9932447 15.9028404,51.4606213 L18.9280277,54.4858085 C20.2198021,55.7803915 20.9329532,57.5000426 20.9329532,59.329366 L3.3797617,59.329366 C3.3797617,57.4999723 4.09284255,55.7803213 5.38468723,54.4858085 L5.38461702,54.4858085 Z" id="Shape" fill="#000000"></path>
                        </g>
                    </g>
                </g>
            </g>
        </g>
    </g>
</svg>