<?xml version="1.0" encoding="UTF-8"?>
<svg width="75px" height="75px" viewBox="0 0 75 75" version="1.1" xmlns="http://www.w3.org/2000/svg" xmlns:xlink="http://www.w3.org/1999/xlink">
    <!-- Generator: Sketch 46.2 (44496) - http://www.bohemiancoding.com/sketch -->
    <title>Development</title>
    <desc>Created with Sketch.</desc>
    <defs></defs>
    <g id="Page-1" stroke="none" stroke-width="1" fill="none" fill-rule="evenodd">
        <g id="Home" transform="translate(-682.000000, -1452.000000)" fill-rule="nonzero">
            <g id="Third-Section" transform="translate(189.000000, 1058.000000)">
                <g id="Growth-Strats" transform="translate(160.000000, 394.000000)">
                    <g id="np_cleaning-data_986794_000000" transform="translate(333.000000, 0.000000)">
                        <g id="Development">
                            <path d="M1.34640957,22.5398936 L8.82646277,22.5398936 L8.82646277,30.0199468 C8.82646277,30.708734 9.38435106,31.2666223 10.0731383,31.2666223 L20.0465426,31.2666223 L20.0465426,38.7466755 C20.0465426,39.4354628 20.6044309,39.9933511 21.2932181,39.9933511 L38.7466755,39.9933511 C39.4354628,39.9933511 39.9933511,39.4354628 39.9933511,38.7466755 L39.9933511,18.799867 C39.9933511,18.1110798 39.4354628,17.5531915 38.7466755,17.5531915 L28.7732713,17.5531915 L28.7732713,10.0731383 C28.7732713,9.38435106 28.215383,8.82646277 27.5265957,8.82646277 L20.0465426,8.82646277 L20.0465426,1.34640957 C20.0465426,0.65762234 19.4886543,0.0997340426 18.799867,0.0997340426 L1.34640957,0.0997340426 C0.65762234,0.0997340426 0.0997340426,0.65762234 0.0997340426,1.34640957 L0.0997340426,21.2932181 C0.0997340426,21.9820053 0.65762234,22.5398936 1.34640957,22.5398936 Z M37.4996011,37.5 L22.5394947,37.5 L22.5394947,20.0465426 L37.4996011,20.0465426 L37.4996011,37.5 Z M26.2799202,17.5531915 L21.2932181,17.5531915 C20.6044309,17.5531915 20.0465426,18.1110798 20.0465426,18.799867 L13.8131649,18.799867 L13.8131649,21.2932181 L20.0465426,21.2932181 L20.0465426,23.7865691 L13.8131649,23.7865691 L13.8131649,26.2799202 L20.0465426,26.2799202 L20.0465426,28.7732713 L11.3194149,28.7732713 L11.3194149,11.3198138 L26.2795213,11.3198138 L26.2799202,17.5531915 Z M2.59268617,2.59308511 L17.5527926,2.59308511 L17.5527926,8.82646277 L10.0727394,8.82646277 C9.38395213,8.82646277 8.82606383,9.38435106 8.82606383,10.0731383 L5.08603723,10.0731383 L5.08603723,12.5664894 L8.82606383,12.5664894 L8.82606383,15.0598404 L5.08603723,15.0598404 L5.08603723,17.5531915 L8.82606383,17.5531915 L8.82606383,20.0465426 L2.59268617,20.0465426 L2.59268617,2.59308511 Z" id="Shape" fill="#000000"></path>
                            <polygon id="Shape" fill="#5B88FF" points="5.08643617 5.08643617 15.0598404 5.08643617 15.0598404 7.57978723 5.08643617 7.57978723"></polygon>
                            <polygon id="Shape" fill="#5B88FF" points="13.812766 13.812766 23.7861702 13.812766 23.7861702 16.306117 13.812766 16.306117"></polygon>
                            <path d="M64.1976064,58.6930851 L67.0555851,55.8351064 C67.5417926,55.3488989 67.5417926,54.5603457 67.0555851,54.0710904 L64.1976064,51.2131117 L70.7956117,44.6151064 C71.2818191,44.1288989 71.2818191,43.3403457 70.7956117,42.8510904 L65.8089096,37.8643883 C65.3227021,37.3781809 64.5341489,37.3781809 64.0448936,37.8643883 L37.8651064,64.0441755 C37.3788989,64.530383 37.3788989,65.3189362 37.8651064,65.8081915 L42.8518085,70.7948936 C43.0949122,71.0379973 43.4159282,71.1595452 43.7338564,71.1595452 C44.0517846,71.1595452 44.3727766,71.0379973 44.6159043,70.7948936 L51.2139096,64.1968883 L54.0718883,67.054867 C54.314992,67.2979707 54.636008,67.4195186 54.9539362,67.4195186 C55.2718644,67.4195186 55.5928564,67.2979707 55.835984,67.054867 L58.6939628,64.1968883 L69.0319947,74.5349202 C69.2750984,74.7780239 69.5961144,74.8995718 69.9140426,74.8995718 C70.2319707,74.8995718 70.5529628,74.7780239 70.7960904,74.5349202 L74.536117,70.7948936 C75.0223245,70.3086862 75.0223245,69.520133 74.536117,69.0308777 L64.1976064,58.6930851 Z M43.7337766,68.1494681 L40.5110904,64.9267819 L64.9275798,40.5102926 L68.150266,43.7329787 L43.7337766,68.1494681 Z M54.9534574,64.4094415 L52.9774468,62.4334309 L62.4338298,52.9770479 L64.4098404,54.9530585 L54.9534574,64.4094415 Z M69.9135638,71.8894947 L60.4571809,62.4331117 L62.4331915,60.4571011 L71.8895745,69.913484 L69.9135638,71.8894947 Z" id="Shape" fill="#000000"></path>
                            <polygon id="Shape" fill="#000000" points="30.3845745 57.0821809 32.1485904 55.3181649 38.3819681 61.5515426 36.6179521 63.3155585"></polygon>
                            <polygon id="Shape" fill="#000000" points="50.331383 29.6553191 52.0953989 27.8913032 62.0688032 37.8647074 60.3047872 39.6287234"></polygon>
                            <polygon id="Shape" fill="#000000" points="50.331383 42.1220745 52.0953989 40.3580585 55.8354255 44.0980851 54.0714096 45.8621011"></polygon>
                            <polygon id="Shape" fill="#5B88FF" points="25.0332447 22.5398936 35.0066489 22.5398936 35.0066489 25.0332447 25.0332447 25.0332447"></polygon>
                            <polygon id="Shape" fill="#5B88FF" points="25.0332447 27.5265957 35.0066489 27.5265957 35.0066489 30.0199468 25.0332447 30.0199468"></polygon>
                            <polygon id="Shape" fill="#5B88FF" points="25.0332447 32.5132979 35.0066489 32.5132979 35.0066489 35.0066489 25.0332447 35.0066489"></polygon>
                            <path d="M47.4734043,21.293617 C45.4101862,21.293617 43.7333777,22.9704255 43.7333777,25.0336436 C43.7333777,27.0968617 45.4101862,28.7736702 47.4734043,28.7736702 C49.5366223,28.7736702 51.2134309,27.0968617 51.2134309,25.0336436 C51.2134309,22.9704255 49.5366223,21.293617 47.4734043,21.293617 L47.4734043,21.293617 Z M47.4734043,26.2803191 C46.7877287,26.2803191 46.2267287,25.7224309 46.2267287,25.0336436 C46.2267287,24.3448564 46.7877287,23.7869681 47.4734043,23.7869681 C48.1590798,23.7869681 48.7200798,24.3448564 48.7200798,25.0336436 C48.7200798,25.7224309 48.1590798,26.2803191 47.4734043,26.2803191 Z" id="Shape" fill="#000000"></path>
                            <path d="M42.4867021,36.2537234 C42.4867021,38.3169415 44.1635106,39.99375 46.2267287,39.99375 C48.2899468,39.99375 49.9667553,38.3169415 49.9667553,36.2537234 C49.9667553,34.1905053 48.2899468,32.5136968 46.2267287,32.5136968 C44.1635106,32.5136968 42.4867021,34.1905053 42.4867021,36.2537234 Z M47.4734043,36.2537234 C47.4734043,36.9425106 46.9124043,37.5003989 46.2267287,37.5003989 C45.5410532,37.5003989 44.9800532,36.9425106 44.9800532,36.2537234 C44.9800532,35.5649362 45.5410532,35.0070479 46.2267287,35.0070479 C46.9124043,35.0070479 47.4734043,35.5649362 47.4734043,36.2537234 Z" id="Shape" fill="#000000"></path>
                            <polygon id="Shape" fill="#5B88FF" points="41.6050532 2.95771277 44.0984043 0.464361702 45.8624202 2.22837766 43.3690691 4.72172872"></polygon>
                            <polygon id="Shape" fill="#5B88FF" points="42.4867021 13.812766 46.2267287 13.812766 46.2267287 16.306117 42.4867021 16.306117"></polygon>
                            <polygon id="Shape" fill="#5B88FF" points="30.0199468 0.0997340426 32.5132979 0.0997340426 32.5132979 3.83976064 30.0199468 3.83976064"></polygon>
                            <polygon id="Shape" fill="#5B88FF" points="0.464361702 40.3579787 2.95771277 37.8646277 4.72172872 39.6286436 2.22837766 42.1219947"></polygon>
                            <polygon id="Shape" fill="#5B88FF" points="0.0997340426 26.2803191 3.83976064 26.2803191 3.83976064 28.7736702 0.0997340426 28.7736702"></polygon>
                            <polygon id="Shape" fill="#5B88FF" points="13.812766 38.7462766 16.306117 38.7462766 16.306117 42.4863032 13.812766 42.4863032"></polygon>
                            <path d="M27.5265957,57.4468085 C27.8445,57.4468085 28.165516,57.3252606 28.4086436,57.0821569 L32.1486702,53.3421303 C32.6348777,52.8559229 32.6348777,52.0673697 32.1486702,51.5781144 L28.4086436,47.8380878 C27.9224362,47.3518803 27.133883,47.3518803 26.6446277,47.8380878 L22.9046011,51.5781144 C22.4183936,52.0643218 22.4183936,52.852875 22.9046011,53.3421303 L26.6446277,57.0821569 C26.8877314,57.3252606 27.2087473,57.4468085 27.5266755,57.4468085 L27.5265957,57.4468085 Z M27.5265957,50.4840957 L29.5026064,52.4601064 L27.5265957,54.436117 L25.5505851,52.4601064 L27.5265957,50.4840957 Z" id="Shape" fill="#000000"></path>
                        </g>
                    </g>
                </g>
            </g>
        </g>
    </g>
</svg>