<?xml version="1.0" encoding="UTF-8"?>
<svg width="11px" height="11px" viewBox="0 0 11 11" version="1.1" xmlns="http://www.w3.org/2000/svg" xmlns:xlink="http://www.w3.org/1999/xlink">
    <!-- Generator: Sketch 46.2 (44496) - http://www.bohemiancoding.com/sketch -->
    <title>Dribbble</title>
    <desc>Created with Sketch.</desc>
    <defs></defs>
    <g id="Page-1" stroke="none" stroke-width="1" fill="none" fill-rule="evenodd">
        <g id="Home" transform="translate(-1172.000000, -2311.000000)" fill="#8E99A8">
            <g id="Footer" transform="translate(0.000000, 2220.000000)">
                <g id="Social-Media" transform="translate(1171.000000, 39.000000)">
                    <path d="M11.5671866,55.3589366 C11.430114,55.0332106 11.2588482,54.7188821 11.0602879,54.4252488 C10.8641272,54.134015 10.6379724,53.8598773 10.3896221,53.6115337 C10.1403719,53.3625903 9.86682663,53.1370416 9.57528494,52.9402863 C9.28164367,52.7411316 8.96730654,52.5710702 8.64127175,52.4325017 C8.30863827,52.2930334 7.96070786,52.1844581 7.60767846,52.1124744 C7.24535093,52.0380913 6.87282543,52 6.50029994,52 C6.12717457,52 5.75464907,52.0380913 5.39232154,52.1124744 C5.0389922,52.1844581 4.69106179,52.2930334 4.35872825,52.4325017 C4.03269346,52.5710702 3.71835633,52.7411316 3.42411518,52.9402863 C3.13287343,53.1370416 2.85932813,53.3625903 2.61037792,53.6115337 C2.36202759,53.8598773 2.13617277,54.134015 1.93971206,54.4252488 C1.74115177,54.7188821 1.56958608,55.0332106 1.4325135,55.3589366 C1.29154169,55.691561 1.18356329,56.0400818 1.1109778,56.3931016 C1.0374925,56.7545194 1,57.1270348 1,57.4995501 C1,57.8735651 1.0374925,58.2460804 1.1109778,58.6080982 C1.18356329,58.9611179 1.29154169,59.3090389 1.4325135,59.6410634 C1.56958608,59.9667894 1.74115177,60.2823177 1.93971206,60.5759509 C2.13617277,60.8671847 2.36202759,61.1398228 2.61037792,61.389666 C2.85932813,61.6380095 3.13287343,61.8629584 3.42411518,62.0603136 C3.71835633,62.2588684 4.03269346,62.4295297 4.35872825,62.5671984 C4.69106179,62.7081663 5.0389922,62.8155419 5.39232154,62.8872256 C5.75464907,62.9625085 6.12717457,63 6.50029994,63 C6.87282543,63 7.24535093,62.9625085 7.60767846,62.8872256 C7.96070786,62.8155419 8.30863827,62.7081663 8.64127175,62.5671984 C8.96730654,62.4295297 9.28164367,62.2588684 9.57528494,62.0603136 C9.86682663,61.8629584 10.1403719,61.6380095 10.3896221,61.389666 C10.6379724,61.1398228 10.8641272,60.8671847 11.0602879,60.5759509 C11.2588482,60.2823177 11.430114,59.9667894 11.5671866,59.6410634 C11.7075585,59.3090389 11.8164367,58.9611179 11.8887223,58.6080982 C11.9625075,58.2460804 12,57.8735651 12,57.4995501 C12,57.1270348 11.9625075,56.7545194 11.8887223,56.3931016 C11.8164367,56.0400818 11.7075585,55.691561 11.5671866,55.3589366 L11.5671866,55.3589366 Z M6.50029994,52.8032175 C7.68896221,52.8032175 8.77504499,53.2468166 9.60227954,53.975651 C9.59058188,53.993047 8.9220156,55.0116155 7.14847031,55.6759646 C6.34553089,54.2008998 5.46340732,53.0290661 5.39292142,52.9357873 C5.74805039,52.8497069 6.11877624,52.8032175 6.50029994,52.8032175 L6.50029994,52.8032175 Z M5.37492501,52.9396864 C5.37492501,52.9402863 5.37402519,52.9408862 5.37402519,52.9408862 C5.37402519,52.9408862 5.36832633,52.9423858 5.35992801,52.9435855 C5.36502699,52.9423858 5.36952609,52.941786 5.37492501,52.9396864 L5.37492501,52.9396864 Z M4.49580084,53.2528153 C4.5584883,53.3361963 5.42711458,54.5137287 6.24025195,55.9585003 C3.98470306,56.5580641 2.0269946,56.5340695 1.90341932,56.5322699 C2.20815837,55.0770007 3.18536293,53.8709748 4.49580084,53.2528153 L4.49580084,53.2528153 Z M3.00629874,60.6386367 C2.25794841,59.8066258 1.80263947,58.7064758 1.80263947,57.4995501 C1.80263947,57.4497614 1.80503899,57.4005726 1.80653869,57.3513838 C1.88992202,57.3534833 4.21055789,57.4059714 6.62897421,56.6822359 C6.76364727,56.9452761 6.89232154,57.2137151 7.00989802,57.4809543 C6.94781044,57.4977505 6.88632274,57.5163463 6.82483503,57.5370416 C4.29004199,58.3558555 3.00419916,60.6362372 3.00419916,60.6362372 C3.00419916,60.6362372 3.00629874,60.6380368 3.00629874,60.6386367 L3.00629874,60.6386367 Z M6.50029994,62.1973824 C5.39082184,62.1973824 4.37192561,61.8116701 3.56778644,61.1683163 C3.5509898,61.1554192 3.53119376,61.1398228 3.5074985,61.1206271 C3.53119376,61.1398228 3.5509898,61.1554192 3.56778644,61.1683163 C3.59508098,61.1896115 3.61277744,61.2028085 3.61277744,61.2028085 C3.61277744,61.2028085 4.51319736,59.2391547 7.29904019,58.2685753 C7.30953809,58.2646762 7.32033593,58.2619768 7.33083383,58.2589775 C7.99160168,59.9757873 8.26424715,61.4142604 8.33383323,61.8248671 C7.77054589,62.0642127 7.15026995,62.1973824 6.50029994,62.1973824 L6.50029994,62.1973824 Z M9.12507499,61.3953647 C9.07708458,61.112229 8.82663467,59.7334424 8.21025795,58.0409271 C9.72705459,57.7982822 11.0407918,58.2142877 11.1379724,58.2460804 C10.9289142,59.554983 10.1793641,60.6833265 9.12507499,61.3953647 L9.12507499,61.3953647 Z M7.92441512,57.2991956 C7.89082184,57.2188139 7.85782843,57.1381322 7.82303539,57.0571506 C7.72525495,56.8271029 7.619976,56.5994547 7.5104979,56.3757055 C9.36562687,55.6183776 10.1184763,54.529925 10.1274745,54.5170279 C10.7858428,55.3169461 11.185063,56.3388139 11.1961608,57.4530607 C11.1280744,57.438364 9.53839232,57.0961418 7.92441512,57.2991956 L7.92441512,57.2991956 Z" id="Dribbble"></path>
                </g>
            </g>
        </g>
    </g>
</svg>