<?xml version="1.0" encoding="UTF-8"?>
<svg width="11px" height="11px" viewBox="0 0 11 11" version="1.1" xmlns="http://www.w3.org/2000/svg" xmlns:xlink="http://www.w3.org/1999/xlink">
    <!-- Generator: Sketch 46.2 (44496) - http://www.bohemiancoding.com/sketch -->
    <title>Facebook</title>
    <desc>Created with Sketch.</desc>
    <defs></defs>
    <g id="Page-1" stroke="none" stroke-width="1" fill="none" fill-rule="evenodd">
        <g id="Home" transform="translate(-1172.000000, -2285.000000)" fill="#8E99A8">
            <g id="Footer" transform="translate(0.000000, 2220.000000)">
                <g id="Social-Media" transform="translate(1171.000000, 39.000000)">
                    <path d="M12,36.3926509 C12,36.7279364 11.7282286,37 11.392934,37 L8.58982321,37 L8.58982321,32.7401667 L10.0196944,32.7401667 L10.2339353,31.080219 L8.58982321,31.080219 L8.58982321,30.0201297 C8.58982321,29.5395239 8.72346163,29.2120288 9.41262837,29.2120288 L10.2917654,29.2117291 L10.2917654,27.7267651 C10.1395495,27.7066899 9.6178802,27.6614458 9.0108142,27.6614458 C7.74334668,27.6614458 6.87559587,28.4350893 6.87559587,29.8559327 L6.87559587,31.080219 L5.44212906,31.080219 L5.44212906,32.7401667 L6.87559587,32.7401667 L6.87559587,37 L1.607066,37 C1.2717714,37 1,36.7279364 1,36.3926509 L1,26.6073491 C1,26.271764 1.2717714,26 1.607066,26 L11.392934,26 C11.7282286,26 12,26.271764 12,26.6073491 L12,36.3926509" id="Facebook"></path>
                </g>
            </g>
        </g>
    </g>
</svg>