<svg xmlns="http://www.w3.org/2000/svg" width="16" height="16" viewBox="0 0 16 16">
    <path fill="#8E99A8" fill-rule="evenodd" d="M8 0C3.581 0 0 3.672 0 8.203c0 3.624 2.292 6.698 5.472 7.783.4.075.545-.178.545-.395 0-.195-.006-.711-.01-1.395-2.226.495-2.695-1.1-2.695-1.1-.364-.947-.888-1.2-.888-1.2-.727-.509.054-.498.054-.498.803.057 1.226.845 1.226.845.714 1.253 1.872.891 2.328.681.072-.53.28-.891.508-1.096-1.776-.207-3.644-.91-3.644-4.054 0-.896.311-1.628.823-2.201-.082-.208-.357-1.042.078-2.171 0 0 .672-.22 2.2.84a7.503 7.503 0 0 1 2.004-.276c.679.004 1.363.095 2.003.277 1.527-1.061 2.197-.841 2.197-.841.437 1.13.162 1.963.08 2.17.512.574.822 1.306.822 2.202 0 3.15-1.87 3.844-3.653 4.047.287.254.544.754.544 1.52 0 1.096-.01 1.98-.01 2.25 0 .219.144.474.55.394C13.71 14.898 16 11.825 16 8.203 16 3.673 12.418 0 8 0"/>
</svg>
