<?xml version="1.0" encoding="UTF-8"?>
<svg width="73px" height="73px" viewBox="0 0 73 73" version="1.1" xmlns="http://www.w3.org/2000/svg" xmlns:xlink="http://www.w3.org/1999/xlink">
    <!-- Generator: Sketch 46.2 (44496) - http://www.bohemiancoding.com/sketch -->
    <title>Mobile and Web</title>
    <desc>Created with Sketch.</desc>
    <defs></defs>
    <g id="Page-1" stroke="none" stroke-width="1" fill="none" fill-rule="evenodd">
        <g id="Home" transform="translate(-977.000000, -1456.000000)" fill-rule="nonzero">
            <g id="Third-Section" transform="translate(189.000000, 1058.000000)">
                <g id="Growth-Strats" transform="translate(160.000000, 394.000000)">
                    <g id="np_automatic-payment_1147137_000000" transform="translate(628.000000, 4.000000)">
                        <g id="Mobile-and-Web">
                            <path d="M51.7992632,21.5140319 C51.9703598,21.0529282 52.4116025,20.7253213 52.9248463,20.7253213 C53.585212,20.7253213 54.1255042,21.2713613 54.1255042,21.9387521 L56.52682,21.9387521 C56.52682,20.3582245 55.5182674,19.0234894 54.1255042,18.5229734 L54.1255042,17.0850287 L51.7241884,17.0850287 L51.7241884,18.5229734 C50.3314253,19.0265491 49.3228726,20.3613309 49.3228726,21.9387521 C49.3228726,22.2603094 49.4489398,22.5697362 49.6740641,22.7972787 L54.0504525,27.2202245 C53.8793559,27.6782917 53.4381132,28.0059064 52.9248694,28.0059064 C52.2645037,28.0059064 51.7242115,27.4598664 51.7242115,26.7924755 L49.3228957,26.7924755 C49.3228957,28.3730032 50.3314483,29.7077383 51.7242115,30.2082543 L51.7242115,31.6461989 L54.1255273,31.6461989 L54.1255273,30.2082543 C55.5182904,29.7046785 56.5268431,28.3698968 56.5268431,26.7924755 C56.5268431,26.4709183 56.4007759,26.1614915 56.1756516,25.9339489 L51.7992632,21.5140319 Z" id="Shape" fill="#000000"></path>
                            <path d="M52.2403368,0.312424468 L36.6321684,11.2329138 L33.0481758,13.6476606 L34.3809253,15.6680521 L36.1158663,14.4971011 L36.1158663,35.2865691 C36.1158663,35.9569887 36.6531617,36.5 37.3165242,36.5 L68.5336295,36.5 C69.196992,36.5 69.7342874,35.9569887 69.7342874,35.2865691 L69.7342874,14.4971011 L71.4692284,15.6680521 L72.8019779,13.6476606 L69.2179853,11.2329138 L53.6098168,0.312424468 C53.1985886,0.0242375532 52.6522874,0.0242375532 52.2411053,0.312424468 L52.2403368,0.312424468 Z M52.924708,2.78479468 L66.4227922,12.2313053 L39.4258554,12.2313053 L52.924708,2.78479468 Z M43.3194448,14.658167 L62.5299712,14.658167 L62.5299712,34.0730606 L43.3194448,34.0730606 L43.3194448,14.658167 Z M38.5168133,34.0730606 L38.5168133,14.658167 L40.9181291,14.658167 L40.9181291,34.0730606 L38.5168133,34.0730606 Z M67.3326027,34.0730606 L64.9312869,34.0730606 L64.9312869,14.658167 L67.3326027,14.658167 L67.3326027,34.0730606 Z" id="Shape" fill="#000000"></path>
                            <polygon id="Shape" fill="#000000" points="33.7144737 38.9268617 72.1355263 38.9268617 72.1355263 41.3537234 33.7144737 41.3537234"></polygon>
                            <path d="M6.09972632,70.7610745 L6.09972632,72.9027702 L8.50104211,72.9027702 L8.50104211,70.4759085 C8.50104211,70.2878248 8.45901869,70.0997411 8.37497495,69.9328972 L2.49778337,58.0564185 L2.49778337,45.4973121 L4.89909916,43.0704504 L4.89909916,58.3414291 C4.89909916,59.0118487 5.43639453,59.55486 6.09975705,59.55486 L10.9023886,59.55486 C11.4877103,59.55486 11.9890128,59.1271266 12.0850655,58.5446643 L12.6703872,55.0469547 L14.1021861,46.5075079 C14.2372592,45.6308089 14.9726535,44.9937674 15.8491145,44.9937674 C16.3654013,44.9937674 16.8546703,45.2212867 17.1908545,45.6156498 C17.5270387,46.0100129 17.6741222,46.5348285 17.5990782,47.029287 L15.7230551,58.1353828 L15.7230551,58.1626848 C15.7140499,58.2294239 15.7140499,58.2991948 15.7170514,58.3659354 C15.7170514,58.3993049 15.7140499,58.4326745 15.7170514,58.4660464 C15.729058,58.5661573 15.7500697,58.6662605 15.7860894,58.763335 L18.5865999,66.3139424 L19.3069947,68.2675467 L19.3069947,72.9028914 L21.7083105,72.9028914 L21.7083105,68.049168 C21.7083105,67.9035563 21.6842973,67.7579446 21.6332695,67.6244633 L21.0029261,65.9226314 L23.7013903,59.5551675 L26.5108913,59.5551675 C27.1742538,59.5551675 27.7115492,59.0121563 27.7115492,58.3417367 L27.7115492,53.4880133 L28.9122071,53.4880133 C30.8992671,53.4880133 32.5141808,51.8559197 32.5141808,49.8477207 C32.5141808,49.1955046 32.3310814,48.5918101 32.0339176,48.063958 C33.0394734,47.417807 33.7148387,46.2862526 33.7148387,44.9939973 C33.7148387,42.9857984 32.099925,41.3537048 30.112865,41.3537048 L27.7115492,41.3537048 L27.7115492,17.0850877 C27.7115492,16.4146682 27.1742538,15.8716569 26.5108913,15.8716569 L6.10009132,15.8716569 C5.43672879,15.8716569 4.89943342,16.4146682 4.89943342,17.0850877 L4.89943342,39.6366516 L0.447970263,44.1354707 C0.222845947,44.36299 0.0967787895,44.6724168 0.0967787895,44.9939973 L0.0967787895,58.342125 C0.0967787895,58.5302087 0.1388022,58.7182924 0.222845947,58.8851363 L6.09972632,70.7610745 Z M15.8494526,42.566766 C13.7783274,42.566766 12.0463832,44.0683915 11.7341737,46.1190702 L9.88819579,57.1280915 L7.30076842,57.1280915 L7.30076842,23.0308787 C9.64806421,22.5455064 11.5031095,20.6707266 11.9833726,18.2984596 L20.6311832,18.2984596 C21.1114463,20.6707266 22.9634947,22.5455064 25.3137874,23.0308787 L25.3107859,42.5669213 L25.3107859,52.395517 C22.9634901,52.8808894 21.1084449,54.7556691 20.6281817,57.1279362 L18.3289122,57.1279362 L19.9678007,47.4204894 C20.1539045,46.2040298 19.8057099,44.9724266 19.013268,44.0380266 C18.2208722,43.1006755 17.0682407,42.566766 15.8495249,42.566766 L15.8494526,42.566766 Z M19.7816168,62.6371064 L19.1482688,60.9322457 L18.6379912,59.5550309 L21.0873333,59.5550309 L19.7816168,62.6371064 Z M25.3106368,57.1280915 L23.1134137,57.1280915 C23.4766156,56.0966947 24.2870232,55.2745904 25.3106368,54.9074936 L25.3106368,57.1280915 Z M28.9126105,51.0609372 L27.7119526,51.0609372 L27.7119526,48.6340755 L28.9126105,48.6340755 C29.5729762,48.6340755 30.1132684,49.1801155 30.1132684,49.8475064 C30.1132684,50.5148972 29.5729762,51.0609372 28.9126105,51.0609372 Z M30.1132684,43.7803521 C30.7736341,43.7803521 31.3139263,44.3263921 31.3139263,44.993783 C31.3139263,45.6611738 30.7736341,46.2072138 30.1132684,46.2072138 L27.7119526,46.2072138 L27.7119526,43.7803521 L30.1132684,43.7803521 Z M25.3106368,18.2986926 L25.3106368,20.5192904 C24.2900968,20.1522247 23.4766463,19.3331957 23.1134137,18.2986926 L25.3106368,18.2986926 Z M7.30038421,18.2986926 L9.49760737,18.2986926 C9.13440547,19.3300894 8.32100105,20.1521936 7.30038421,20.5192904 L7.30038421,18.2986926 Z" id="Shape" fill="#6D54CA"></path>
                            <path d="M21.7078947,35.2869574 C21.7078947,32.6113521 19.5527042,30.433234 16.9052632,30.433234 C14.2578221,30.433234 12.1026316,32.6113521 12.1026316,35.2869574 C12.1026316,37.9625628 14.2578221,40.1406809 16.9052632,40.1406809 C19.5527042,40.1406809 21.7078947,37.9625628 21.7078947,35.2869574 Z M16.9052632,37.7138191 C15.5815042,37.7138191 14.5039474,36.6247989 14.5039474,35.2869574 C14.5039474,33.949116 15.5815042,32.8600957 16.9052632,32.8600957 C18.2290221,32.8600957 19.3065789,33.949116 19.3065789,35.2869574 C19.3065789,36.6247989 18.2290221,37.7138191 16.9052632,37.7138191 Z" id="Shape" fill="#6D54CA"></path>
                            <polygon id="Shape" fill="#000000" points="54.1260421 43.7805851 56.5273579 43.7805851 56.5273579 46.2074468 54.1260421 46.2074468"></polygon>
                            <path d="M15.7049895,4.95079787 L15.7049895,13.4452021 L18.1063053,13.4452021 L18.1063053,6.16461702 L35.6178526,6.16461702 L34.0660263,7.73295213 L35.7649284,9.44992766 L39.3669021,5.80963511 C39.8351625,5.33639319 39.8351625,4.56886809 39.3669021,4.09265957 L35.7649284,0.452367021 L34.0660263,2.16934255 L35.6178526,3.73767766 L16.9052632,3.73767766 C16.2419006,3.73767766 15.7046053,4.28068894 15.7046053,4.95110851 L15.7049895,4.95079787 Z" id="Shape" fill="#000000"></path>
                            <path d="M36.9648947,66.4804787 L40.5668684,62.8401862 C41.0351288,62.3669443 41.0351288,61.5994191 40.5668684,61.1232106 L36.9648947,57.4829181 L35.2659926,59.1998936 L36.8178189,60.7682287 L30.1121158,60.7682287 C29.4487533,60.7682287 28.9114579,61.31124 28.9114579,61.9816596 L28.9114579,68.0488138 L24.1088263,68.0488138 L24.1088263,70.4756755 L30.1121158,70.4756755 C30.7754783,70.4756755 31.3127737,69.9326643 31.3127737,69.2622447 L31.3127737,63.1950904 L36.8178189,63.1950904 L35.2659926,64.7634255 L36.9648947,66.4804787 Z" id="Shape" fill="#000000"></path>
                            <path d="M52.925,72.9029255 L57.7276316,72.9029255 C58.3909941,72.9029255 58.9282895,72.3599143 58.9282895,71.6894947 L58.9282895,69.7661777 C58.9763158,69.7449424 59.0273466,69.7267406 59.0753729,69.7055053 L60.4201098,71.0645479 C60.6452341,71.2920671 60.9514038,71.4194754 61.2695993,71.4194754 C61.5877947,71.4194754 61.8939414,71.2920671 62.1190887,71.0645479 L65.5169698,67.6305192 C65.7420941,67.4029999 65.8681613,67.0935731 65.8681613,66.7719926 C65.8681613,66.4504353 65.7420941,66.1410085 65.5169698,65.913466 L64.1722329,64.5544234 C64.1932439,64.5058862 64.2142556,64.4543125 64.2322658,64.4057752 L66.1323406,64.4088086 C66.7957031,64.4088086 67.3329985,63.8657973 67.3329985,63.1953778 L67.3329985,58.3416544 C67.3329985,57.6712348 66.7957031,57.1282235 66.1323406,57.1282235 L64.229269,57.1282235 C64.2082573,57.0796863 64.190247,57.0281126 64.1692353,56.9795753 L65.5139722,55.6205328 C65.7390965,55.3930135 65.8651637,55.0835867 65.8651637,54.7620062 C65.8651637,54.4404256 65.7390965,54.1310221 65.5139722,53.9034796 L62.1160911,50.4694509 C61.6658425,50.0144123 60.8674069,50.0144123 60.417189,50.4694509 L59.0724522,51.8284934 C59.0244259,51.8072589 58.973395,51.7860237 58.9253687,51.7678219 L58.9283702,49.8475336 C58.9283702,49.177114 58.3910748,48.6341027 57.7277123,48.6341027 L52.9250807,48.6341027 C52.2617182,48.6341027 51.7244228,49.177114 51.7244228,49.8475336 L51.7244228,51.7708506 C51.6763965,51.7920858 51.6253656,51.8102877 51.5773393,51.8315229 L50.2326025,50.4724804 C50.0074782,50.2449611 49.7013085,50.1175528 49.383113,50.1175528 C49.0649175,50.1175528 48.7587709,50.2449611 48.5336235,50.4724804 L45.1357425,53.9065091 C44.9106182,54.1340283 44.784551,54.4434551 44.784551,54.7650357 C44.784551,55.0865929 44.9106182,55.3960197 45.1357425,55.6235623 L46.4804793,56.9826048 C46.4594684,57.0311421 46.4384567,57.0827158 46.4204464,57.131253 L44.5203717,57.1282196 C43.8570092,57.1282196 43.3197138,57.6712309 43.3197138,58.3416505 L43.3197138,63.1953739 C43.3197138,63.8657935 43.8570092,64.4088047 44.5203717,64.4088047 L46.4234433,64.4088047 C46.444455,64.457342 46.4624652,64.5089157 46.4834769,64.5574529 L45.1387401,65.9164955 C44.9136158,66.1440147 44.7875486,66.4534415 44.7875486,66.7750221 C44.7875486,67.0966026 44.9136158,67.4060061 45.1387401,67.6335487 L48.5366211,71.0675774 C48.9868698,71.5226159 49.7853053,71.5226159 50.2355232,71.0675774 L51.5802601,69.7085348 C51.6282864,69.7297693 51.6793172,69.7510045 51.7273436,69.7692064 L51.7243421,71.6894947 C51.7243421,72.3599143 52.2616375,72.9029255 52.925,72.9029255 L52.925,72.9029255 Z M50.4786547,67.3817957 L49.38304,68.489066 L47.6841379,66.7720904 L48.7797526,65.6648202 C49.1549573,65.285624 49.2390072,64.700133 48.9868652,64.2268755 C48.7587363,63.7991421 48.5666311,63.335033 48.4225521,62.8436032 C48.2724718,62.3339622 47.8042114,61.9820479 47.2759142,61.9820479 L45.7210911,61.9820479 L45.7210911,59.5551862 L47.2759142,59.5551862 C47.8072082,59.5551862 48.2754763,59.2032951 48.4255489,58.6875734 C48.5696279,58.1991646 48.7587286,57.7350011 48.989862,57.3043011 C49.2419963,56.8310669 49.1579541,56.2485968 48.7827495,55.8663564 L47.6871347,54.7590862 L49.3860368,53.0421106 L50.4816516,54.1493809 C50.8568562,54.528577 51.4361842,54.6165498 51.90446,54.3586967 C52.3276909,54.128141 52.7869147,53.933992 53.2731716,53.7883803 C53.7774479,53.6397321 54.1256579,53.166498 54.1256579,52.6325729 L54.1256579,51.061209 L56.5269737,51.061209 L56.5269737,52.6325729 C56.5269737,53.1695189 56.8751606,53.6427686 57.3854537,53.7944378 C57.8687214,53.9400495 58.3279989,54.1311619 58.7541653,54.3647541 C59.222418,54.6195707 59.7987568,54.5346345 60.1769737,54.1554383 L61.2725884,53.0481681 L62.9714905,54.7651436 L61.8758758,55.8724138 C61.5006712,56.25161 61.4166213,56.8371011 61.6687633,57.3103585 C61.8968921,57.7380919 62.0889974,58.2022011 62.2330763,58.6936309 C62.3801598,59.2032718 62.8484125,59.5551862 63.3767174,59.5551862 L64.9315405,59.5551862 L64.9315405,61.9820479 L63.3767174,61.9820479 C62.8454234,61.9820479 62.3771553,62.3339389 62.2270826,62.8496606 C62.0830037,63.3380695 61.8939029,63.802233 61.6627696,64.232933 C61.4106353,64.7061671 61.4946775,65.2886372 61.8698821,65.6708777 L62.9654968,66.7781479 L61.2665947,68.4951234 L60.17098,67.3878532 C59.7957754,67.008657 59.2164474,66.923713 58.7481716,67.1785373 C58.3249406,67.4090931 57.8657168,67.603242 57.37946,67.7488537 C56.8751837,67.8975019 56.5269737,68.3707361 56.5269737,68.9046612 L56.5269737,70.476025 L54.1256579,70.476025 L54.1256579,68.9046612 C54.1256579,68.3677151 53.7774709,67.8944654 53.2671779,67.7427963 C52.7839102,67.5971846 52.3246326,67.4060721 51.8984663,67.1724799 C51.4332104,66.9176633 50.8538747,67.0025996 50.4786547,67.3817957 Z" id="Shape" fill="#000000"></path>
                            <path d="M55.3263158,65.6223404 C57.9737568,65.6223404 60.1289474,63.4442223 60.1289474,60.768617 C60.1289474,58.0930117 57.9737568,55.9148936 55.3263158,55.9148936 C52.6788747,55.9148936 50.5236842,58.0930117 50.5236842,60.768617 C50.5236842,63.4442223 52.6788747,65.6223404 55.3263158,65.6223404 Z M55.3263158,58.3417553 C56.6500747,58.3417553 57.7276316,59.4307755 57.7276316,60.768617 C57.7276316,62.1064585 56.6500747,63.1954787 55.3263158,63.1954787 C54.0025568,63.1954787 52.925,62.1064585 52.925,60.768617 C52.925,59.4307755 54.0025568,58.3417553 55.3263158,58.3417553 Z" id="Shape" fill="#000000"></path>
                        </g>
                    </g>
                </g>
            </g>
        </g>
    </g>
</svg>