<?xml version="1.0" encoding="UTF-8"?>
<svg width="12px" height="10px" viewBox="0 0 12 10" version="1.1" xmlns="http://www.w3.org/2000/svg" xmlns:xlink="http://www.w3.org/1999/xlink">
    <!-- Generator: Sketch 46.2 (44496) - http://www.bohemiancoding.com/sketch -->
    <title>Twitter</title>
    <desc>Created with Sketch.</desc>
    <defs></defs>
    <g id="Page-1" stroke="none" stroke-width="1" fill="none" fill-rule="evenodd">
        <g id="Home" transform="translate(-1171.000000, -2259.000000)" fill="#8E99A8">
            <g id="Footer" transform="translate(0.000000, 2220.000000)">
                <g id="Social-Media" transform="translate(1171.000000, 39.000000)">
                    <path d="M11.6690252,0.184870719 C11.1929084,0.473871391 10.6668091,0.684053699 10.1045043,0.79651405 C9.65658292,0.306302265 9.01642058,0 8.30769231,0 C6.94918965,0 5.84668785,1.1303707 5.84668785,2.52443049 C5.84668785,2.7224376 5.86783435,2.91435712 5.91012736,3.09922784 C3.86404293,2.99381628 2.05024965,1.99000352 0.835286893,0.460734997 C0.623181054,0.834962033 0.50206926,1.26910384 0.50206926,1.73144084 C0.50206926,2.60677325 0.936533789,3.37957771 1.59752223,3.83230271 C1.19445705,3.82012752 0.814140389,3.70542437 0.48156356,3.51767005 L0.48156356,3.54842844 C0.48156356,4.7720355 1.33030732,5.79282945 2.45748004,6.02383775 C2.25114143,6.08311172 2.03326836,6.11290891 1.80866686,6.11290891 C1.65006809,6.11290891 1.49531413,6.09752972 1.34536619,6.06805293 C1.65871893,7.07058409 2.56737778,7.80077537 3.64488826,7.82031976 C2.80255253,8.49764506 1.74042133,8.90134888 0.587296078,8.90134888 C0.388647104,8.90134888 0.192240942,8.88981449 0,8.8667457 C1.08936534,9.58187818 2.38410808,10 3.77401009,10 C8.30288628,10 10.7786292,6.15392009 10.7786292,2.81759636 C10.7786292,2.70769921 10.7767068,2.59812246 10.7725416,2.4904681 C11.2534643,2.13450386 11.671268,1.69010926 12,1.18387748 C11.5591274,1.38444779 11.0842923,1.52029733 10.5863883,1.5811733 C11.0948656,1.26910384 11.4851147,0.774406459 11.6690252,0.184870719" id="Twitter"></path>
                </g>
            </g>
        </g>
    </g>
</svg>